
<svg xmlns="http://www.w3.org/2000/svg" version="1.1" xmlns:xlink="http://www.w3.org/1999/xlink" xmlns:svgjs="http://svgjs.dev/svgjs" viewBox="0 0 800 800"><defs><filter id="uuunion-blur" x="-100%" y="-100%" width="400%" height="400%" color-interpolation-filters="sRGB">
    <feGaussianBlur in="SourceGraphic" stdDeviation="16.5 22" result="blur"></feGaussianBlur>
    <feDropShadow stdDeviation="12.307692307692308" in="blur" dx="10" dy="10" flood-color="hsl(316, 73%, 52%)" flood-opacity="0.62" x="0%" y="0%" width="100%" height="100%"></feDropShadow>
  </filter><filter id="uuunion-blur2" x="-100%" y="-100%" width="400%" height="400%" color-interpolation-filters="sRGB">
    <feGaussianBlur in="SourceGraphic" stdDeviation="16.5 22" result="blur"></feGaussianBlur>
    <feDropShadow stdDeviation="12.307692307692308" in="blur" dx="-10" dy="-10" flood-color="hsl(316, 73%, 52%)" flood-opacity="0.62" x="0%" y="0%" width="100%" height="100%"></feDropShadow>
  </filter><linearGradient gradientTransform="rotate(0, 0.5, 0.5)" x1="50%" y1="0%" x2="50%" y2="100%" id="uuunion-grad"><stop stop-color="hsl(37, 99%, 67%)" offset="10%"></stop><stop stop-color="hsl(316, 73%, 52%)" offset="90%"></stop></linearGradient><linearGradient gradientTransform="rotate(264, 0.5, 0.5)" x1="50%" y1="0%" x2="50%" y2="100%" id="uuunion-grad2"><stop stop-color="hsl(37, 99%, 67%)" offset="25%"></stop><stop stop-color="hsl(316, 73%, 52%)" offset="100%"></stop></linearGradient><linearGradient gradientTransform="rotate(333, 0.5, 0.5)" x1="50%" y1="0%" x2="50%" y2="100%" id="uuunion-grad3"><stop stop-color="hsl(37, 99%, 67%)" offset="0%"></stop><stop stop-color="hsl(316, 73%, 52%)" offset="75%"></stop></linearGradient></defs><path d="M-75.91 -82.9Q-61.86 -80.79 -47.81 -78.56 -33.76 -76.55 -19.7 -75.07 -5.65 -74.34 8.39 -74.49 22.44 -75.48 36.5 -77.17 50.55 -79.29 64.6 -81.52 78.65 -83.52 92.71 -84.97 106.76 -85.66 120.81 -85.47 134.86 -84.45 148.91 -82.74 162.97 -80.6 177.02 -78.38 191.07 -76.4 205.12 -74.98 219.18 -74.32 233.23 -74.54 247.28 -75.6 261.33 -77.33 275.39 -79.48 289.44 -81.7 303.49 -83.66 317.54 -85.06 331.6 -85.68 345.65 -85.42 359.7 -84.33 373.75 -82.57 387.81 -80.42 401.86 -78.2 415.91 -76.26 429.96 -74.89 444.01 -74.31 458.07 -74.6 472.12 -75.72 486.17 -77.5 500.22 -79.66 514.28 -81.88 528.33 -83.8 542.38 -85.14 556.43 -85.69 570.49 -85.36 584.54 -84.21 598.59 -82.41 612.64 -80.23 626.7 -78.03 640.75 -76.12 654.8 -74.81 668.85 -74.3 682.9 -74.66 696.96 -75.85 711.01 -77.67 725.06 -79.85 739.11 -82.05 753.17 -83.94 767.22 -85.22 781.27 -85.69 795.32 -85.29 809.38 -84.08 823.43 -82.24 828.57 -67.55 836.92 -52.87 847.94 -38.19 860.95 -23.5 875.15 -8.82 889.65 5.85 903.55 20.54 915.98 35.22 926.18 49.9 933.51 64.58 937.51 79.27 937.93 93.95 934.75 108.63 928.16 123.32 918.59 138 906.61 152.68 892.98 167.37 878.54 182.05 864.19 196.73 850.82 211.41 839.27 226.1 830.25 240.78 824.32 255.46 821.86 270.15 823.01 284.83 827.7 299.51 835.64 314.2 846.34 328.88 859.14 343.56 873.23 358.24 887.74 372.93 901.77 387.61 914.45 402.29 924.98 416.98 932.72 431.66 937.18 446.34 938.08 461.03 935.37 475.71 929.22 490.39 920.01 505.08 908.31 519.76 894.85 534.44 880.47 549.12 866.05 563.81 852.51 578.49 840.67 593.17 831.28 607.86 824.91 622.54 821.98 637.22 822.64 651.91 826.88 666.59 834.42 681.27 844.79 695.95 857.35 710.64 871.31 725.32 885.82 740 899.97 754.69 912.87 769.37 923.73 784.05 931.87 798.74 936.79 813.42 938.17 828.1 935.94 842.78 930.23 857.47 914.38 838.94 898.54 826.72 882.7 822.7 866.86 827.49 851.02 840.36 835.18 859.32 819.33 881.46 803.49 903.38 787.65 921.7 771.81 933.6 755.97 937.26 740.13 932.11 724.29 918.95 708.44 899.79 692.6 877.59 676.76 855.76 660.92 837.66 645.08 826.06 629.24 822.77 613.4 828.27 597.55 841.73 581.71 861.07 565.87 883.33 550.03 905.07 534.19 922.96 518.35 934.23 502.51 937.17 486.66 931.31 470.82 917.56 454.98 898.03 439.14 875.73 423.3 854.08 407.46 836.42 391.61 825.46 375.77 822.89 359.93 829.1 344.09 843.14 328.25 862.85 312.41 885.19 296.57 906.74 280.72 924.17 264.88 934.81 249.04 937.01 233.2 930.45 217.36 916.13 201.52 896.25 185.68 873.87 169.83 852.43 153.99 835.23 138.15 824.92 122.31 823.08 106.47 829.99 90.63 844.59 74.78 864.64 58.94 887.05 43.1 908.37 27.26 925.34 11.42 935.32 -4.41 936.8 -20.25 929.54 -36.1 914.66 -51.94 894.45 -67.78 872.01 -83.62 850.81 -84.03 836.22 -84.19 821.63 -84.09 807.04 -83.74 792.45 -83.15 777.86 -82.37 763.27 -81.44 748.68 -80.42 734.09 -79.37 719.5 -78.36 704.91 -77.45 690.32 -76.71 675.74 -76.16 661.15 -75.86 646.56 -75.81 631.97 -76.02 617.38 -76.48 602.79 -77.16 588.2 -78.01 573.61 -78.99 559.02 -80.03 544.43 -81.07 529.84 -82.04 515.25 -82.88 500.66 -83.55 486.07 -83.99 471.49 -84.19 456.9 -84.12 442.31 -83.8 427.72 -83.24 413.13 -82.48 398.54 -81.57 383.95 -80.55 369.36 -79.51 354.77 -78.49 340.18 -77.57 325.59 -76.79 311 -76.22 296.41 -75.88 281.82 -75.8 267.23 -75.98 252.65 -76.41 238.06 -77.06 223.47 -77.89 208.88 -78.85 194.29 -79.89 179.7 -80.93 165.11 -81.92 150.52 -82.78 135.93 -83.47 121.34 -83.95 106.75 -84.18 92.16 -84.15 77.57 -83.86 62.98 -83.33 48.4 -82.59 33.81 -81.69 19.22 -80.69 4.63 -79.65 -9.95 -78.62 -24.54 -77.68 -39.13 -76.89 -53.72 -76.28 -68.31 -75.91 -82.9" fill="url(#uuunion-grad)"></path><path d="M-75.91 -82.9Q-76.28 -68.31 -76.89 -53.72 -77.68 -39.13 -78.62 -24.54 -79.65 -9.95 -80.69 4.63 -81.69 19.22 -82.59 33.81 -83.33 48.4 -83.86 62.98 -84.15 77.57 -84.18 92.16 -83.95 106.75 -83.47 121.34 -82.78 135.93 -81.92 150.52 -80.93 165.11 -79.89 179.7 -78.85 194.29 -77.89 208.88 -77.06 223.47 -76.41 238.06 -75.98 252.65 -75.8 267.23 -75.88 281.82 -76.22 296.41 -76.79 311 -77.57 325.59 -78.49 340.18 -79.51 354.77 -80.55 369.36 -81.57 383.95 -71.32 391.55 -61.08 399.74 -50.84 407.94 -40.59 415.6 -30.35 422.18 -20.11 427.23 -0.91 431.2 2.41 431.45 14.99 422.68 27.4 410.9 39.64 396.77 51.72 381.16 63.62 365.11 75.36 349.66 86.96 335.78 98.42 324.23 109.77 315.53 121.02 309.87 132.2 307.12 143.34 306.83 154.45 308.32 165.58 310.72 176.74 313.1 187.97 314.53 199.3 314.23 210.75 311.62 222.37 306.36 234.17 298.43 246.17 288.06 258.41 275.76 270.89 262.23 283.65 248.28 296.67 234.72 309.99 222.32 323.6 211.7 337.5 203.28 351.68 197.21 366.14 193.41 380.86 191.55 395.83 191.1 411.02 191.4 426.4 191.74 441.95 191.42 457.62 189.82 473.39 186.5 489.21 181.21 505.03 173.91 520.82 164.79 536.52 154.21 552.1 142.69 567.5 130.82 582.68 119.22 597.59 108.43 612.2 98.91 626.46 90.96 640.34 84.69 653.8 80.03 666.82 76.75 679.37 74.46 691.43 72.71 703 70.99 714.06 68.81 724.62 65.77 734.67 61.57 744.24 56.04 753.35 49.18 762.01 41.13 770.26 32.13 778.13 22.54 785.68 12.75 792.95 3.15 800 -5.9 784.75 -22.85 770.8 -39.79 759.32 -56.74 751.26 -73.68 747.33 -90.63 747.84 -107.57 752.76 -124.51 761.67 -141.46 747.47 -140.58 733.26 -139.62 719.05 -138.71 704.85 -138 690.64 -137.59 676.44 -137.55 662.23 -137.88 648.03 -138.53 633.82 -139.4 619.61 -140.36 605.41 -141.27 591.2 -141.98 577 -142.4 562.79 -142.44 548.59 -142.12 534.38 -141.47 520.18 -140.6 505.97 -139.64 491.76 -138.73 477.56 -138.01 463.35 -137.6 449.15 -137.55 434.94 -137.87 420.74 -138.51 406.53 -139.38 392.32 -140.35 378.12 -141.26 363.91 -141.97 349.71 -142.39 335.5 -142.45 321.3 -142.13 307.09 -141.48 292.89 -140.62 278.68 -139.65 264.47 -138.74 250.27 -138.02 236.06 -137.6 221.86 -137.54 207.65 -137.86 193.45 -138.5 179.24 -139.37 165.03 -140.33 150.83 -141.24 136.62 -141.96 122.42 -142.39 108.21 -142.45 94.01 -142.14 79.8 -141.5 65.59 -140.63 51.39 -139.67 37.18 -138.76 22.98 -138.03 8.77 -137.6 -5.42 -137.54 -19.63 -137.85 -33.83 -138.48 -48.04 -139.35 -62.25 -140.31 -76.45 -141.23 -90.66 -141.95 -104.86 -142.38 -119.07 -142.45 -127.6 -129.78 -110.62 -114.07 -101.8 -106.78 -93.09 -99.17 -84.47 -91.21 -75.91 -82.9" fill="url(#uuunion-grad2)" filter="url(#uuunion-blur)"></path><path d="M819.83 381.38Q830.07 375.41 840.31 371.13 850.55 368.84 860.8 368.7 871.04 370.71 881.28 374.74 891.53 380.5 901.77 387.61 914.45 402.29 924.98 416.98 932.72 431.66 937.18 446.34 938.08 461.03 935.37 475.71 929.22 490.39 920.01 505.08 908.31 519.76 894.85 534.44 880.47 549.12 866.05 563.81 852.51 578.49 840.67 593.17 831.28 607.86 824.91 622.54 821.98 637.22 822.64 651.91 826.88 666.59 834.42 681.27 844.79 695.95 857.35 710.64 871.31 725.32 885.82 740 899.97 754.69 912.87 769.37 923.73 784.05 931.87 798.74 936.79 813.42 938.17 828.1 935.94 842.78 930.23 857.47 915.69 840.26 901.15 828.21 886.61 822.88 872.07 824.96 857.54 834.19 843 849.36 828.46 868.51 813.92 889.15 799.38 908.6 784.85 924.34 770.31 934.32 755.77 937.25 741.23 932.75 726.7 921.4 712.16 904.68 697.62 884.75 683.08 864.21 668.54 845.71 654.01 831.67 639.47 823.89 624.93 823.4 610.39 830.26 595.85 843.57 581.32 861.61 566.78 882.03 552.24 902.2 537.7 919.47 523.16 931.63 508.63 937.08 494.09 935.13 479.55 926.01 465.01 910.93 450.48 891.83 435.94 871.19 421.4 851.7 406.86 835.88 392.32 825.78 377.79 822.73 363.25 827.1 348.71 838.34 334.17 854.99 319.63 874.89 305.1 895.44 290.56 913.99 276.02 928.13 261.48 936.02 246.95 936.64 232.41 929.91 217.87 916.69 203.33 898.72 188.79 878.31 174.26 858.12 159.72 840.77 145.18 828.52 130.64 822.94 116.1 824.77 101.57 833.77 87.03 848.77 72.49 867.82 57.95 888.45 43.42 907.99 28.88 923.89 7.1 930.41 -0.08 916.2 -0.06 905.66 -0.07 895.13 -0.1 884.59 -0.16 874.05 -0.03 858.25 0.69 853 13.61 843.59 26.39 828.9 39 809.91 51.45 788.03 63.73 764.95 75.83 742.51 87.75 722.4 99.5 706.09 111.08 694.59 122.52 688.4 133.82 687.44 145 691.08 156.09 698.2 167.1 707.33 178.08 716.8 189.03 724.92 200 730.18 211.01 731.4 222.1 727.84 233.3 719.27 244.64 706.01 256.14 688.89 267.84 669.11 279.76 648.16 291.93 627.63 304.37 609.02 317.09 593.64 330.11 582.4 343.44 575.77 357.09 573.73 371.04 575.75 385.31 580.89 399.87 587.88 414.73 595.29 429.85 601.65 445.22 605.63 460.81 606.19 476.58 602.64 492.51 594.78 508.55 582.84 524.66 567.49 540.79 549.78 556.91 530.95 572.95 512.38 588.88 495.36 604.65 481.01 620.2 470.17 635.49 463.24 650.47 460.24 665.1 460.75 679.34 463.97 693.16 468.86 706.52 474.19 719.39 478.73 731.76 481.33 743.61 481.09 754.93 477.43 765.71 470.13 775.96 459.39 785.69 445.74 794.91 430.03 803.66 413.32 811.95 396.74 819.83 381.38 819.83 381.38 819.83 381.38" fill="url(#uuunion-grad3)" filter="url(#uuunion-blur2)"></path></svg>
